# xmcd
#
# Track frame offsets: 
#        150
#        14829
#        29443
#        43482
#        55091
#        68607
#        82662
#        102935
#        121245
#        134729
#        146318
#        159226
#        173479
#        186692
#        197440
#        212315
#        226445
#        240059
#        251761
#
# Disc length: 3477 seconds
#
# Revision: 1
# Processed by: cddbd v1.5.2PL0 Copyright (c) Steve Scherf et al.
# Submitted via: ExactAudioCopy v1.0b3
#
DISCID=fc0d9313
DTITLE=Sinatra, Frank - As Time Goes By
DYEAR=2003
DGENRE=Easy Listening
TTITLE0=Stardust
TTITLE1=But Beautiful
TTITLE2=I'll Be Seeing You
TTITLE3=The Coffee Song
TTITLE4=I Couldn't Sleep A Wink Last Night
TTITLE5=If I Loved You
TTITLE6=Without A Song
TTITLE7=Ol' Man River
TTITLE8=When Your Lover Has Gone
TTITLE9=As Time Goes By
TTITLE10=All The Things You Are
TTITLE11=September Song
TTITLE12=It's Funny To Everyone But Me
TTITLE13=How Deep Is The Ocean?
TTITLE14=Poinciana
TTITLE15=What'll I Do
TTITLE16=Just For Now
TTITLE17=They Say It's Wonderful
TTITLE18=It Started All Over Again
EXTD=YEAR: 2003
EXTT0=
EXTT1=
EXTT2=
EXTT3=
EXTT4=
EXTT5=
EXTT6=
EXTT7=
EXTT8=
EXTT9=
EXTT10=
EXTT11=
EXTT12=
EXTT13=
EXTT14=
EXTT15=
EXTT16=
EXTT17=
EXTT18=
PLAYORDER=
